<?xml version="1.0" encoding="UTF-8"?>
<svg version="1.1" xmlns="http://www.w3.org/2000/svg" width="500" height="500">
<path d="M0 0 C1.83327495 1.47453694 3.64849066 2.97205961 5.4375 4.5 C6.10136719 5.05171875 6.76523438 5.6034375 7.44921875 6.171875 C15.40070033 13.39074816 20.4433759 23.68111159 24.4375 33.5 C24.89640625 33.07847656 25.3553125 32.65695313 25.828125 32.22265625 C26.74851563 31.40087891 26.74851563 31.40087891 27.6875 30.5625 C28.29078125 30.01722656 28.8940625 29.47195312 29.515625 28.91015625 C31.53575777 27.42790436 32.9659713 26.83270579 35.4375 26.5 C36.4375 27.5 36.4375 27.5 36.5 30.5625 C36.479375 31.531875 36.45875 32.50125 36.4375 33.5 C38.7475 33.5 41.0575 33.5 43.4375 33.5 C43.4375 35.15 43.4375 36.8 43.4375 38.5 C39.9725 38.995 39.9725 38.995 36.4375 39.5 C36.4375 45.44 36.4375 51.38 36.4375 57.5 C40.8925 56.51 40.8925 56.51 45.4375 55.5 C45.15647086 58.87234971 44.63378348 60.28639739 42.3125 62.8125 C38.66054466 64.95603901 36.6133776 65.09655394 32.4375 64.5 C29.04810444 62.36320715 27.71167443 61.3225233 26.4375 57.5 C26.3568378 56.01876453 26.32988807 54.53417796 26.33984375 53.05078125 C26.34306641 52.20322266 26.34628906 51.35566406 26.34960938 50.48242188 C26.35798828 49.60134766 26.36636719 48.72027344 26.375 47.8125 C26.37951172 46.91982422 26.38402344 46.02714844 26.38867188 45.10742188 C26.40045017 42.90488013 26.41689836 40.70247401 26.4375 38.5 C25.4475 38.995 25.4475 38.995 24.4375 39.5 C24.47230469 40.22703125 24.50710937 40.9540625 24.54296875 41.703125 C24.9752798 57.76039264 19.90512326 70.42922372 8.95239258 82.14697266 C-4.48306906 95.81704655 -22.61204537 103.52439592 -41.5625 105.5 C-44.32797635 105.46215302 -47.08553462 105.34499784 -49.84887695 105.23144531 C-62.16056665 104.65018171 -62.16056665 104.65018171 -72.49609375 110.6796875 C-79.44838254 116.80400995 -89.09801839 117.71143885 -97.9375 117.8125 C-98.77539062 117.84150391 -99.61328125 117.87050781 -100.4765625 117.90039062 C-105.94563094 117.95628519 -109.38140064 117.39572274 -113.5625 113.5 C-114.4375 110.75 -114.4375 110.75 -114.5625 108.5 C-113.80324219 107.90832031 -113.04398438 107.31664062 -112.26171875 106.70703125 C-110.77091797 105.52173828 -110.77091797 105.52173828 -109.25 104.3125 C-108.26386719 103.53519531 -107.27773437 102.75789063 -106.26171875 101.95703125 C-103.6655953 99.59384507 -102.10476675 97.63190688 -100.5625 94.5 C-100.5625 93.84 -100.5625 93.18 -100.5625 92.5 C-102.02117405 91.42093989 -103.53222286 90.41236029 -105.0625 89.4375 C-116.94149253 81.32214867 -124.62754708 69.0843175 -128.15234375 55.171875 C-130.37027097 40.72366339 -127.97669774 27.34837879 -119.66796875 15.1953125 C-92.050208 -20.15952037 -35.96336011 -26.22421414 0 0 Z " fill="#F88E4B" transform="translate(208.5625,197.5)"/>
<path d="M0 0 C0 0.33 0 0.66 0 1 C-0.56396484 1.00410889 -1.12792969 1.00821777 -1.70898438 1.01245117 C-4.30699703 1.04569765 -6.90275923 1.1163677 -9.5 1.1875 C-10.8303125 1.19620117 -10.8303125 1.19620117 -12.1875 1.20507812 C-18.64265786 1.41866791 -23.01851201 2.81478956 -28 7 C-29.86091545 9.00868968 -29.86091545 9.00868968 -30.9375 11.125 C-31.31777344 11.78757813 -31.69804688 12.45015625 -32.08984375 13.1328125 C-34.5956711 18.27352268 -34.58109057 23.39553433 -34 29 C-33.17773713 31.29112335 -32.20897999 33.25219156 -30.97265625 35.34375 C-30 37 -30 37 -29 40 C-26.57616923 41.16953416 -26.57616923 41.16953416 -24 42 C-23.34 42.33 -22.68 42.66 -22 43 C-19.58656122 43.1501182 -17.1679357 43.2215537 -14.75 43.25 C-12.79320312 43.28867187 -12.79320312 43.28867187 -10.796875 43.328125 C-6.08913732 42.92128347 -2.87076427 41.48370959 0.8125 38.5625 C2.19634005 36.74165783 2.50521967 35.21062406 3 33 C2.52949219 33.34933594 2.05898437 33.69867188 1.57421875 34.05859375 C0.95160156 34.51363281 0.32898438 34.96867187 -0.3125 35.4375 C-0.92738281 35.88996094 -1.54226562 36.34242188 -2.17578125 36.80859375 C-6.1590654 39.41009625 -10.39323999 39.49680745 -15 39 C-19.13869913 37.21283447 -21.53111378 34.74589634 -24 31 C-26.47989297 24.55227829 -27.25177318 17.69440618 -24.8125 11.125 C-22.78414563 7.62783729 -21.76354662 6.42178428 -18 5 C-14.07860721 4.43525581 -10.98254641 4.5887015 -7.3125 6.125 C-5.33838503 7.72563376 -3.95751877 9.17150502 -2.375 11.125 C-0.25395783 14.20979125 -0.25395783 14.20979125 3 15 C2.67 11.7 2.34 8.4 2 5 C3.32 4.34 4.64 3.68 6 3 C9.85787573 7.02511087 10.49753161 9.56875621 10.4609375 15.09375 C10.45956284 16.09746643 10.45956284 16.09746643 10.4581604 17.12145996 C10.45214355 18.53010187 10.43645498 19.93873213 10.41162109 21.34716797 C10.37510805 23.49364795 10.37060216 25.63839795 10.37109375 27.78515625 C10.32842473 33.74630461 10.25763594 38.35591014 8 44 C12.62 44 17.24 44 22 44 C21.01 42.35 20.02 40.7 19 39 C18.68578646 36.21170866 18.53448423 33.71615545 18.5625 30.9375 C18.5325293 29.87692383 18.5325293 29.87692383 18.50195312 28.79492188 C18.50522553 25.30981096 18.75080383 23.34005447 20.83203125 20.5 C23 19 23 19 26.125 19.0625 C29 20 29 20 31 23 C31.22216068 25.67169858 31.32452645 28.20512871 31.3125 30.875 C31.32861328 31.58269531 31.34472656 32.29039062 31.36132812 33.01953125 C31.365973 38.00813101 30.71890796 39.46848673 28 44 C32.62 44 37.24 44 42 44 C41.01 42.02 40.02 40.04 39 38 C38.58349609 35.82177734 38.58349609 35.82177734 38.5234375 33.8359375 C38.4925 33.10632813 38.4615625 32.37671875 38.4296875 31.625 C38.41164063 30.8825 38.39359375 30.14 38.375 29.375 C38.28874543 23.09804414 38.28874543 23.09804414 37 17 C33.01973096 14.58771573 28.53409309 14.41606377 24 15 C22.35 15.66 20.7 16.32 19 17 C19 11.39 19 5.78 19 0 C19.66 0 20.32 0 21 0 C21.495 4.455 21.495 4.455 22 9 C22.94875 8.79375 23.8975 8.5875 24.875 8.375 C25.90625 8.25125 26.9375 8.1275 28 8 C28.99 8.99 28.99 8.99 30 10 C31.31747324 10.69748583 32.64914193 11.36959957 34 12 C34 12.66 34 13.32 34 14 C35.175625 14.2165625 35.175625 14.2165625 36.375 14.4375 C39 15 39 15 41 16 C41 17.65 41 19.3 41 21 C41.45375 20.195625 41.9075 19.39125 42.375 18.5625 C44 16 44 16 46 15 C46.495 18.465 46.495 18.465 47 22 C48.65 22 50.3 22 52 22 C52.33 21.34 52.66 20.68 53 20 C54.45792884 19.94600264 55.91642712 19.90720823 57.375 19.875 C58.59316406 19.84019531 58.59316406 19.84019531 59.8359375 19.8046875 C62 20 62 20 64 22 C64 23.32 64 24.64 64 26 C63.35933594 25.95359375 62.71867187 25.9071875 62.05859375 25.859375 C55.72365803 25.59502597 52.16237558 26.26551554 47 30 C45.45413124 33.09173752 45.70640479 35.59429552 46 39 C47.86708505 41.36497439 49.32061431 42.66030715 52 44 C56.93231984 43.87402719 61.53025787 43.16277845 66 41 C66.33 41.66 66.66 42.32 67 43 C69.97 43 72.94 43 76 43 C74.02 46.96 72.04 50.92 70 55 C69.67 55 69.34 55 69 55 C69.33 52.69 69.66 50.38 70 48 C65.96336124 46.65445375 62.22125973 46.42437367 58 47 C55.64477775 48.7712618 55.64477775 48.7712618 54 51 C51.57698402 52.59010424 50.63105768 53.10517628 47.75 52.625 C47.1725 52.41875 46.595 52.2125 46 52 C47.65 51.34 49.3 50.68 51 50 C51 49.01 51 48.02 51 47 C50.34926514 47 49.69853027 47 49.02807617 47 C26 47 26 47 23.15234375 46.96484375 C22.09144531 46.95582031 21.03054687 46.94679688 19.9375 46.9375 C18.87402344 46.92589844 17.81054688 46.91429687 16.71484375 46.90234375 C14.03252964 46.81091364 14.03252964 46.81091364 12 48 C9.9765625 47.94921875 9.9765625 47.94921875 7.625 47.6875 C6.85414063 47.60886719 6.08328125 47.53023438 5.2890625 47.44921875 C3 47 3 47 0.890625 45.90234375 C-1.69483383 44.66837476 -3.06124821 45.60078167 -5.66015625 46.4765625 C-10.93774679 47.6571921 -16.63431691 47.47323794 -22 47 C-22.66 46.34 -23.32 45.68 -24 45 C-26.60280568 45.32041397 -26.60280568 45.32041397 -29 46 C-29.66 45.01 -30.32 44.02 -31 43 C-31.99 43.495 -31.99 43.495 -33 44 C-33.19335938 43.22914063 -33.38671875 42.45828125 -33.5859375 41.6640625 C-33.84632812 40.66117187 -34.10671875 39.65828125 -34.375 38.625 C-34.63023438 37.62726563 -34.88546875 36.62953125 -35.1484375 35.6015625 C-35.82404319 32.87458985 -35.82404319 32.87458985 -38 31 C-38.45847689 28.63969304 -38.82143131 26.2601826 -39.125 23.875 C-39.29257813 22.59367187 -39.46015625 21.31234375 -39.6328125 19.9921875 C-39.75398438 19.00476563 -39.87515625 18.01734375 -40 17 C-39.34 17 -38.68 17 -38 17 C-36.35 14.03 -34.7 11.06 -33 8 C-32.34 8 -31.68 8 -31 8 C-31 7.34 -31 6.68 -31 6 C-30.34 6 -29.68 6 -29 6 C-29 5.34 -29 4.68 -29 4 C-27.02 3.34 -25.04 2.68 -23 2 C-23 1.34 -23 0.68 -23 0 C-15.79306861 -2.40231046 -7.41006122 -0.97181131 0 0 Z " fill="#C5794A" transform="translate(154,217)"/>
<path d="M0 0 C2.90138664 2.35247565 4.9625133 4.9684375 7.3125 7.875 C8.3025 8.535 9.2925 9.195 10.3125 9.875 C9.3225 10.37 9.3225 10.37 8.3125 10.875 C8.43427688 12.78966367 8.43427688 12.78966367 9.3125 14.875 C11.79183197 16.64648372 11.79183197 16.64648372 14.3125 17.875 C14.17116501 19.64619803 14.02426792 21.41695287 13.875 23.1875 C13.79378906 24.17363281 13.71257812 25.15976563 13.62890625 26.17578125 C13.3125 28.875 13.3125 28.875 12.3125 31.875 C10.25 32.5625 10.25 32.5625 8.3125 32.875 C8.9725 30.895 9.6325 28.915 10.3125 26.875 C9.84199219 27.22433594 9.37148437 27.57367188 8.88671875 27.93359375 C8.26410156 28.38863281 7.64148438 28.84367187 7 29.3125 C6.38511719 29.76496094 5.77023438 30.21742188 5.13671875 30.68359375 C1.1534346 33.28509625 -3.08073999 33.37180745 -7.6875 32.875 C-11.82619913 31.08783447 -14.21861378 28.62089634 -16.6875 24.875 C-19.16739297 18.42727829 -19.93927318 11.56940618 -17.5 5 C-13.56838655 -1.77864388 -6.98350041 -2.92332575 0 0 Z " fill="#E08045" transform="translate(146.6875,223.125)"/>
<path d="M0 0 C0.33 0.66 0.66 1.32 1 2 C1.55816406 1.67773438 2.11632812 1.35546875 2.69140625 1.0234375 C6.68015829 -0.74484174 10.72455914 -0.56821094 15 0 C18.64164646 2.12429377 20.45866738 4.12656412 22 8 C22.64649966 13.8184969 22.82525782 19.19078093 20.375 24.5625 C16.49374736 28.54589087 13.44579071 31.21963385 7.75 31.3125 C4 31 4 31 2 30 C1.67 32.64 1.34 35.28 1 38 C1.66 38 2.32 38 3 38 C3.33 38.99 3.66 39.98 4 41 C1.29921247 43.70078753 -0.24035172 43.29894358 -4 43.3125 C-5.0725 43.32925781 -6.145 43.34601563 -7.25 43.36328125 C-8.1575 43.24339844 -9.065 43.12351562 -10 43 C-10.66 42.01 -11.32 41.02 -12 40 C-11.34 39.01 -10.68 38.02 -10 37 C-9.68992033 33.86425055 -9.68992033 33.86425055 -9.734375 30.28515625 C-9.73246155 29.63300644 -9.7305481 28.98085663 -9.72857666 28.3089447 C-9.72721738 26.931301 -9.73089594 25.55364438 -9.73925781 24.17602539 C-9.74994442 22.07343563 -9.73936349 19.97170356 -9.7265625 17.86914062 C-9.72788448 16.52864396 -9.73044767 15.18814782 -9.734375 13.84765625 C-9.73663086 12.63086182 -9.73888672 11.41406738 -9.74121094 10.16040039 C-9.98532492 7.17921598 -10.43348661 5.50416577 -12 3 C-7.77050005 0.58314288 -4.87664009 -0.34833144 0 0 Z M3.875 5.8125 C1.85057958 6.86855201 1.85057958 6.86855201 1 9 C0.51179607 14.41826331 0.1604844 19.3209688 2.625 24.25 C4.93912396 26.23520605 4.93912396 26.23520605 8.125 26.5 C9.548125 26.2525 9.548125 26.2525 11 26 C13.46761058 22.29858412 14.32866854 19.41023592 13.71875 14.9375 C12.58736938 9.73941487 12.58736938 9.73941487 9 6 C6.13257403 4.69186719 6.13257403 4.69186719 3.875 5.8125 Z " fill="#FDFDFD" transform="translate(323,231)"/>
<path d="M0 0 C0.33 0.99 0.66 1.98 1 3 C1.55945313 2.5153125 2.11890625 2.030625 2.6953125 1.53125 C6.57294132 -1.04507287 10.51146346 -0.75752904 15 0 C18.36995847 1.6712243 20.4112014 4.03651138 22.375 7.25 C23.89452994 13.93593173 23.53480765 19.31401679 20.14453125 25.33984375 C17.90262776 28.59175155 15.68359442 29.77213519 12 31 C8.31617231 31.13156527 5.50946415 31.16982138 2 30 C1.83322718 33.41656024 1.83322718 33.41656024 2 37 C2.66 37.66 3.32 38.32 4 39 C3.67 40.32 3.34 41.64 3 43 C-1.29 43 -5.58 43 -10 43 C-10.33 41.68 -10.66 40.36 -11 39 C-10.34 38.01 -9.68 37.02 -9 36 C-8.69040858 33.0268773 -8.69040858 33.0268773 -8.734375 29.65234375 C-8.73179687 28.40775391 -8.72921875 27.16316406 -8.7265625 25.88085938 C-8.73429687 24.57955078 -8.74203125 23.27824219 -8.75 21.9375 C-8.74226563 20.63232422 -8.73453125 19.32714844 -8.7265625 17.98242188 C-8.73042969 16.1174707 -8.73042969 16.1174707 -8.734375 14.21484375 C-8.73663086 13.07136475 -8.73888672 11.92788574 -8.74121094 10.74975586 C-8.71867649 7.85616324 -8.71867649 7.85616324 -11 6 C-11 4.68 -11 3.36 -11 2 C-7.17010894 0.19769832 -4.21878192 -0.19622241 0 0 Z M2.328125 7.7109375 C0.05839898 11.62287705 0.45285652 15.60864062 1 20 C2.16432069 22.48050929 3.09425952 24.09425952 5 26 C7.91538029 26.50042146 7.91538029 26.50042146 11 26 C13.73902545 23.07837286 13.99501624 21.05232944 14.375 17.0625 C14.22506314 12.89583351 13.02576234 9.02576234 10 6 C5.70980011 5.42349962 5.70980011 5.42349962 2.328125 7.7109375 Z " fill="#FCFCFC" transform="translate(359,231)"/>
<path d="M0 0 C1.7687398 -0.13513292 3.54043055 -0.23205586 5.3125 -0.3125 C6.29863281 -0.37050781 7.28476562 -0.42851562 8.30078125 -0.48828125 C11 0 11 0 12.49511719 2.10083008 C14.15450633 5.2976578 15.48305717 8.51333404 16.77734375 11.875 C17.29598742 13.20321739 17.81487509 14.53133952 18.33398438 15.859375 C19.13809731 17.93165383 19.93939412 20.00493362 20.73608398 22.08007812 C21.51294587 24.09814964 22.30071134 26.11170085 23.08984375 28.125 C23.55253662 29.32382813 24.01522949 30.52265625 24.49194336 31.7578125 C25.98498419 34.96771734 27.79404883 37.26055641 30 40 C30 40.99 30 41.98 30 43 C24.39 43 18.78 43 13 43 C13.29296875 40.72135417 13.5859375 38.44270833 13.87890625 36.1640625 C14.18237328 33.95100814 14.18237328 33.95100814 13 32 C8.38 32 3.76 32 -1 32 C-3.26609984 36.53219967 -2.92735976 38.17772925 -2 43 C-5.96 43 -9.92 43 -14 43 C-13.67 41.68 -13.34 40.36 -13 39 C-11.515 38.505 -11.515 38.505 -10 38 C-9.11991868 36.24917605 -9.11991868 36.24917605 -8.57421875 34.078125 C-7.52140084 30.60856461 -6.34823489 27.27104516 -4.95703125 23.921875 C-4.60576172 23.07109375 -4.25449219 22.2203125 -3.89257812 21.34375 C-3.16524694 19.59710297 -2.43338351 17.85233713 -1.69726562 16.109375 C-1.34986328 15.26375 -1.00246094 14.418125 -0.64453125 13.546875 C-0.32846924 12.79245117 -0.01240723 12.03802734 0.31323242 11.26074219 C1.50466014 7.33872988 1.15138807 3.88593473 0 0 Z M5 13 C4.32694982 14.60149886 3.66177773 16.20631029 3 17.8125 C2.62875 18.70582031 2.2575 19.59914062 1.875 20.51953125 C0.83366763 23.0331433 0.83366763 23.0331433 1 26 C4.3 26 7.6 26 11 26 C10.52140759 24.39566191 10.04210442 22.79153584 9.5625 21.1875 C9.29566406 20.29417969 9.02882813 19.40085938 8.75390625 18.48046875 C8.19612127 16.64526945 7.60655425 14.81966274 7 13 C6.34 13 5.68 13 5 13 Z " fill="#FCFCFC" transform="translate(281,218)"/>
<path d="M0 0 C0.33 4.95 0.66 9.9 1 15 C2.32 14.34 3.64 13.68 5 13 C10.31168294 12.57843786 13.72405788 12.4786359 18 16 C21.03957038 20.3437832 20.42115085 25.80046072 20.56640625 30.88867188 C20.72054021 34.73196876 20.82088373 36.7313256 23 40 C23 40.99 23 41.98 23 43 C18.38 43 13.76 43 9 43 C10 39 10 39 11 38 C11.15351581 35.36070903 11.23163061 32.76560041 11.25 30.125 C11.270625 29.39152344 11.29125 28.65804687 11.3125 27.90234375 C11.36521024 23.70421675 11.36521024 23.70421675 9.64453125 19.98046875 C7.95043865 18.75742184 7.95043865 18.75742184 5.4375 19.1875 C2.85558728 19.84627033 2.85558728 19.84627033 1 22 C0.80147898 24.70922801 0.72160523 27.29303179 0.75 30 C0.74226562 30.73734375 0.73453125 31.4746875 0.7265625 32.234375 C0.58991135 36.58421903 0.58991135 36.58421903 3 40 C3 40.99 3 41.98 3 43 C-1.62 43 -6.24 43 -11 43 C-10.67 41.35 -10.34 39.7 -10 38 C-9.90826325 35.62505666 -9.86933712 33.24780721 -9.8671875 30.87109375 C-9.86623077 30.19957779 -9.86527405 29.52806183 -9.86428833 28.8361969 C-9.86361078 27.42343044 -9.8654353 26.01066079 -9.86962891 24.59790039 C-9.87499168 22.44084672 -9.86966523 20.28400045 -9.86328125 18.12695312 C-9.86394194 16.74999954 -9.86522292 15.37304609 -9.8671875 13.99609375 C-9.86831543 12.75013428 -9.86944336 11.5041748 -9.87060547 10.22045898 C-9.97588407 7.60021357 -10.21877331 5.48293546 -11 3 C-6.75755532 0.00533317 -5.65814459 0 0 0 Z " fill="#FBF5ED" transform="translate(173,218)"/>
<path d="M0 0 C3.60866319 3.07797742 5.23331347 6.09934627 5.63671875 10.80078125 C5.70908671 12.24156162 5.76740062 13.68310845 5.8125 15.125 C5.86374023 16.23584961 5.86374023 16.23584961 5.91601562 17.36914062 C5.99793554 19.18308164 6.06315822 20.99776353 6.125 22.8125 C7.115 23.1425 8.105 23.4725 9.125 23.8125 C8.75 25.75 8.75 25.75 8.125 27.8125 C5.16835481 29.2908226 2.38270263 28.87282783 -0.875 28.8125 C-1.205 27.8225 -1.535 26.8325 -1.875 25.8125 C-2.38289063 26.10125 -2.89078125 26.39 -3.4140625 26.6875 C-7.67626905 28.98621814 -10.92303905 30.6737106 -15.875 29.8125 C-21.45394737 26.65460526 -21.45394737 26.65460526 -22.875 23.8125 C-23.25 20.5 -23.25 20.5 -22.875 16.8125 C-20.34494149 13.64992686 -17.77889148 11.03943732 -13.875 9.8125 C-6.92872617 9.28563692 -6.92872617 9.28563692 -3.875 10.8125 C-4.535 9.1625 -5.195 7.5125 -5.875 5.8125 C-10.495 5.8125 -15.115 5.8125 -19.875 5.8125 C-14.30005241 -1.15618449 -8.61156879 -3.55695233 0 0 Z " fill="#FDFBF8" transform="translate(221.875,232.1875)"/>
<path d="M0 0 C0.88945312 0.00644531 1.77890625 0.01289063 2.6953125 0.01953125 C3.61570313 0.03628906 4.53609375 0.05304688 5.484375 0.0703125 C6.42023438 0.07933594 7.35609375 0.08835938 8.3203125 0.09765625 C10.62526157 0.12117614 12.9296866 0.15404397 15.234375 0.1953125 C15.73668721 1.45326386 16.23128292 2.71429809 16.72265625 3.9765625 C16.99891846 4.67845703 17.27518066 5.38035156 17.55981445 6.10351562 C18.44645609 8.85297113 18.44912803 11.33193871 18.234375 14.1953125 C14.666321 13.64045313 13.34821685 12.52745869 11.171875 9.6953125 C9.1118731 7.02878484 8.54537198 6.29897816 5.234375 5.1953125 C-1.18536298 4.64303636 -1.18536298 4.64303636 -6.765625 7.1953125 C-10.22473256 13.24875074 -10.73062129 18.83884372 -9.2265625 25.62890625 C-7.90234052 30.05995671 -6.57773294 33.33623154 -2.765625 36.1953125 C1.58714214 37.64623488 5.93654504 38.19634733 10.20703125 36.3359375 C11.91180152 35.33696384 13.57546636 34.26872397 15.234375 33.1953125 C16.224375 32.8653125 17.214375 32.5353125 18.234375 32.1953125 C18.01018561 36.11862684 17.27485408 37.15659338 14.359375 39.9453125 C8.03399314 44.49958744 0.71117311 43.74297606 -6.765625 43.1953125 C-11.49660183 41.96963038 -14.02062016 39.12905584 -16.640625 35.1328125 C-20.04429614 29.26091626 -20.53549413 23.88792482 -19.765625 17.1953125 C-17.33234308 9.75911904 -13.58816229 5.04113396 -6.87988281 1.08251953 C-4.42408301 0.05199107 -2.65592994 -0.03405038 0 0 Z " fill="#FDF9F3" transform="translate(138.765625,217.8046875)"/>
<path d="M0 0 C0.99 0.33 1.98 0.66 3 1 C3 2.98 3 4.96 3 7 C5.31 7 7.62 7 10 7 C10 8.65 10 10.3 10 12 C7.69 12.33 5.38 12.66 3 13 C3 18.94 3 24.88 3 31 C5.97 30.34 8.94 29.68 12 29 C11.71897086 32.37234971 11.19628348 33.78639739 8.875 36.3125 C5.22304466 38.45603901 3.1758776 38.59655394 -1 38 C-4.38939556 35.86320715 -5.72582557 34.8225233 -7 31 C-7.0806622 29.51876453 -7.10761193 28.03417796 -7.09765625 26.55078125 C-7.09282227 25.27944336 -7.09282227 25.27944336 -7.08789062 23.98242188 C-7.07951172 23.10134766 -7.07113281 22.22027344 -7.0625 21.3125 C-7.05798828 20.41982422 -7.05347656 19.52714844 -7.04882812 18.60742188 C-7.03704983 16.40488013 -7.02060164 14.20247401 -7 12 C-7.99 12 -8.98 12 -10 12 C-9.9158797 9.13990965 -9.43181261 7.45351173 -7.4453125 5.3671875 C-5.06011926 3.31849455 -2.81995319 1.40997659 0 0 Z " fill="#FBFBFA" transform="translate(242,224)"/>
<path d="M0 0 C0 0.33 0 0.66 0 1 C-2.31 1.33 -4.62 1.66 -7 2 C-6.36191406 2.13277344 -5.72382813 2.26554688 -5.06640625 2.40234375 C-4.24011719 2.57894531 -3.41382813 2.75554687 -2.5625 2.9375 C-1.73878906 3.11152344 -0.91507813 3.28554687 -0.06640625 3.46484375 C2 4 2 4 3 5 C3.40478183 8.64303647 3.45825163 10.37808707 1.25 13.375 C-1 15 -1 15 -5 15 C-5 15.66 -5 16.32 -5 17 C-3.68 17.66 -2.36 18.32 -1 19 C-5.89779594 20.00132717 -8.94056256 20.54863725 -13.5 18.1875 C-16.60564379 15.47006169 -16.91106227 14.78561665 -17.375 10.6875 C-17 7 -17 7 -14.75 4.1875 C-9.53048233 0.03561095 -6.58391398 -0.2194638 0 0 Z " fill="#FBFCF9" transform="translate(216,242)"/>
<path d="M0 0 C0 0.33 0 0.66 0 1 C-0.56396484 1.00410889 -1.12792969 1.00821777 -1.70898438 1.01245117 C-4.30699703 1.04569765 -6.90275923 1.1163677 -9.5 1.1875 C-10.8303125 1.19620117 -10.8303125 1.19620117 -12.1875 1.20507812 C-18.64265786 1.41866791 -23.01851201 2.81478956 -28 7 C-29.86091545 9.00868968 -29.86091545 9.00868968 -30.9375 11.125 C-31.31777344 11.78757813 -31.69804688 12.45015625 -32.08984375 13.1328125 C-34.5956711 18.27352268 -34.58109057 23.39553433 -34 29 C-33.17773713 31.29112335 -32.20897999 33.25219156 -30.97265625 35.34375 C-30 37 -30 37 -29 40 C-26.57616923 41.16953416 -26.57616923 41.16953416 -24 42 C-23.34 42.33 -22.68 42.66 -22 43 C-19.58656122 43.1501182 -17.1679357 43.2215537 -14.75 43.25 C-12.79320312 43.28867187 -12.79320312 43.28867187 -10.796875 43.328125 C-6.79055862 42.98190013 -4.43939248 42.01479204 -1 40 C-0.34 39.67 0.32 39.34 1 39 C1.66 39.66 2.32 40.32 3 41 C-2.04093343 46.17358957 -5.90620191 46.85110469 -13 47 C-14.27423828 47.05800781 -14.27423828 47.05800781 -15.57421875 47.1171875 C-20.05661132 47.24711192 -20.05661132 47.24711192 -22 47 C-22.66 46.34 -23.32 45.68 -24 45 C-26.60280568 45.32041397 -26.60280568 45.32041397 -29 46 C-29.66 45.01 -30.32 44.02 -31 43 C-31.99 43.495 -31.99 43.495 -33 44 C-33.19335938 43.22914063 -33.38671875 42.45828125 -33.5859375 41.6640625 C-33.84632812 40.66117187 -34.10671875 39.65828125 -34.375 38.625 C-34.63023438 37.62726563 -34.88546875 36.62953125 -35.1484375 35.6015625 C-35.82404319 32.87458985 -35.82404319 32.87458985 -38 31 C-38.45847689 28.63969304 -38.82143131 26.2601826 -39.125 23.875 C-39.29257813 22.59367187 -39.46015625 21.31234375 -39.6328125 19.9921875 C-39.75398438 19.00476563 -39.87515625 18.01734375 -40 17 C-39.34 17 -38.68 17 -38 17 C-36.35 14.03 -34.7 11.06 -33 8 C-32.34 8 -31.68 8 -31 8 C-31 7.34 -31 6.68 -31 6 C-30.34 6 -29.68 6 -29 6 C-29 5.34 -29 4.68 -29 4 C-27.02 3.34 -25.04 2.68 -23 2 C-23 1.34 -23 0.68 -23 0 C-15.79306861 -2.40231046 -7.41006122 -0.97181131 0 0 Z " fill="#CA7F52" transform="translate(154,217)"/>
<path d="M0 0 C3.3 0 6.6 0 10 0 C10.33 0.99 10.66 1.98 11 3 C12.32 3 13.64 3 15 3 C16.88904855 6.77809711 16.37485131 11.59623966 16.51757812 15.79101562 C16.69367909 19.6486236 16.81525205 21.72287807 19 25 C19 25.99 19 26.98 19 28 C14.38 28 9.76 28 5 28 C6 24 6 24 7 23 C7.15351581 20.36070903 7.23163061 17.76560041 7.25 15.125 C7.270625 14.39152344 7.29125 13.65804687 7.3125 12.90234375 C7.38400635 8.73757444 7.38400635 8.73757444 5.65234375 5.06640625 C3.53688704 3.7011115 1.37040793 2.83284603 -1 2 C-0.67 1.34 -0.34 0.68 0 0 Z " fill="#FDFAF4" transform="translate(177,233)"/>
<path d="M0 0 C0.88945312 0.00644531 1.77890625 0.01289063 2.6953125 0.01953125 C3.61570313 0.03628906 4.53609375 0.05304688 5.484375 0.0703125 C6.42023438 0.07933594 7.35609375 0.08835938 8.3203125 0.09765625 C10.62526157 0.12117614 12.9296866 0.15404397 15.234375 0.1953125 C15.73668721 1.45326386 16.23128292 2.71429809 16.72265625 3.9765625 C16.99891846 4.67845703 17.27518066 5.38035156 17.55981445 6.10351562 C18.44645609 8.85297113 18.44912803 11.33193871 18.234375 14.1953125 C14.666321 13.64045313 13.34821685 12.52745869 11.171875 9.6953125 C9.1118731 7.02878484 8.54537198 6.29897816 5.234375 5.1953125 C-1.18536298 4.64303636 -1.18536298 4.64303636 -6.765625 7.1953125 C-10.68629947 13.49639648 -10.05908908 19.96740086 -9.765625 27.1953125 C-12.62355816 24.33737934 -12.17362441 22.04865666 -12.390625 18.0703125 C-12.46539062 16.78898437 -12.54015625 15.50765625 -12.6171875 14.1875 C-12.66617188 13.20007813 -12.71515625 12.21265625 -12.765625 11.1953125 C-14.93229167 12.02864583 -14.93229167 12.02864583 -15.765625 14.1953125 C-16.425625 14.1953125 -17.085625 14.1953125 -17.765625 14.1953125 C-16.5033251 8.30457965 -13.527097 5.53035196 -8.765625 2.1953125 C-5.70922247 0.39824961 -3.53325437 -0.04529813 0 0 Z " fill="#FCF0E2" transform="translate(138.765625,217.8046875)"/>
<path d="M0 0 C2.875 0.9375 2.875 0.9375 4.875 3.9375 C5.01745897 6.70405324 5.06269445 9.36403306 5 12.125 C4.99097656 12.87458984 4.98195312 13.62417969 4.97265625 14.39648438 C4.94912578 16.24362654 4.91325561 18.09060412 4.875 19.9375 C2.235 19.9375 -0.405 19.9375 -3.125 19.9375 C-3.125 20.5975 -3.125 21.2575 -3.125 21.9375 C-4.445 21.2775 -5.765 20.6175 -7.125 19.9375 C-7.2331866 17.35304227 -7.31237237 14.77312648 -7.375 12.1875 C-7.40851563 11.45789063 -7.44203125 10.72828125 -7.4765625 9.9765625 C-7.54156395 6.40148281 -7.42649943 4.35481145 -5.3046875 1.41796875 C-3.125 -0.0625 -3.125 -0.0625 0 0 Z " fill="#BA6A3A" transform="translate(180.125,236.0625)"/>
<path d="M0 0 C3.23969652 2.69423905 4.85138923 4.16154469 5.59936523 8.3815918 C5.58591064 9.64140869 5.57245605 10.90122559 5.55859375 12.19921875 C5.55626236 12.87547806 5.55393097 13.55173737 5.55152893 14.24848938 C5.54182903 15.66977658 5.52012807 17.09102731 5.48706055 18.51196289 C5.43740895 20.69149677 5.42556395 22.86877824 5.41992188 25.04882812 C5.31165611 35.68834389 5.31165611 35.68834389 3 38 C1.01178687 38.39764263 -0.98944339 38.73775349 -3 39 C-3.495 37.515 -3.495 37.515 -4 36 C-2.02 35.505 -2.02 35.505 0 35 C0.33 30.38 0.66 25.76 1 21 C-0.65 20.01 -2.3 19.02 -4 18 C-4.8125 15.3125 -4.8125 15.3125 -5 13 C-4.01 13 -3.02 13 -2 13 C-2.33 9.37 -2.66 5.74 -3 2 C-2.01 1.34 -1.02 0.68 0 0 Z " fill="#CA7641" transform="translate(159,220)"/>
<path d="M0 0 C0.66 0 1.32 0 2 0 C2.33 2.31 2.66 4.62 3 7 C4.65 7 6.3 7 8 7 C8.33 6.34 8.66 5.68 9 5 C10.45792884 4.94600264 11.91642712 4.90720823 13.375 4.875 C14.18710938 4.85179687 14.99921875 4.82859375 15.8359375 4.8046875 C18 5 18 5 20 7 C20 8.32 20 9.64 20 11 C19.3709375 10.98839844 18.741875 10.97679687 18.09375 10.96484375 C12.61930912 10.90713127 7.41542194 11.19771527 2 12 C0.33510818 15.92438786 -0.87204037 19.89100419 -2 24 C-4.49166907 20.2624964 -4.13738817 18.60880428 -3.8125 14.1875 C-3.73644531 12.98480469 -3.66039062 11.78210938 -3.58203125 10.54296875 C-2.97490949 6.84726782 -1.80557747 4.25587958 0 1 C0 0.67 0 0.34 0 0 Z " fill="#C7743E" transform="translate(198,232)"/>
<path d="M0 0 C-0.33 0.928125 -0.66 1.85625 -1 2.8125 C-2.14967004 5.92029291 -2.14967004 5.92029291 -2 9 C-2.474375 9.45375 -2.94875 9.9075 -3.4375 10.375 C-5.44583349 12.46366683 -5.61869524 14.1783448 -6 17 C-5.34 17 -4.68 17 -4 17 C-3.67 19.31 -3.34 21.62 -3 24 C-2.21625 24.103125 -1.4325 24.20625 -0.625 24.3125 C2 25 2 25 4 28 C4 29.32 4 30.64 4 32 C7.3 31.67 10.6 31.34 14 31 C10.28671335 33.47552443 7.30393027 33.54010105 3 33 C-1.13869913 31.21283447 -3.53111378 28.74589634 -6 25 C-8.50096529 18.49749024 -9.2851416 11.63863479 -6.6875 5.0625 C-4.97112928 1.94760498 -3.79634045 0 0 0 Z " fill="#CA7C4C" transform="translate(136,223)"/>
<path d="M0 0 C3.4250796 3.4250796 3.15742372 7.12661619 3.1875 11.8125 C3.15808578 16.61878377 2.63754272 20.49675751 1 25 C-0.32 24.67 -1.64 24.34 -3 24 C-3.33 16.74 -3.66 9.48 -4 2 C-2.68 1.34 -1.36 0.68 0 0 Z " fill="#C77544" transform="translate(230,231)"/>
<path d="M0 0 C2.03819846 2.03819846 2.67841059 3.29417798 3.6875 5.9375 C3.95949219 6.62714844 4.23148438 7.31679687 4.51171875 8.02734375 C5 10 5 10 4 13 C2.33333333 13 0.66666667 13 -1 13 C-1.33 14.32 -1.66 15.64 -2 17 C-2.6496875 16.0409375 -2.6496875 16.0409375 -3.3125 15.0625 C-5.34708613 12.57578362 -6.90027429 12.12777765 -10.05078125 11.76171875 C-15.7520999 11.57462885 -18.58782005 12.35995154 -23 16 C-23.33 16.33 -23.66 16.66 -24 17 C-22.68 17 -21.36 17 -20 17 C-20.33 17.99 -20.66 18.98 -21 20 C-22.65 19.67 -24.3 19.34 -26 19 C-26 17.02 -26 15.04 -26 13 C-18.25648396 9.28956523 -10.43611322 9.29690204 -2 9 C-1.34 6.03 -0.68 3.06 0 0 Z " fill="#E08945" transform="translate(227,220)"/>
<path d="M0 0 C0.80308594 0.01417969 1.60617188 0.02835938 2.43359375 0.04296875 C3.64208984 0.05263672 3.64208984 0.05263672 4.875 0.0625 C6.87109375 0.23046875 6.87109375 0.23046875 7.87109375 1.23046875 C8.2669816 4.7934594 8.29776883 6.6068667 6.24609375 9.60546875 C3.22273412 11.67408323 1.46521167 11.69926674 -2.12890625 11.23046875 C-4.12890625 9.23046875 -4.12890625 9.23046875 -4.37890625 5.73046875 C-4.1128817 2.00612508 -3.92693108 0.42511731 0 0 Z " fill="#B66837" transform="translate(211.12890625,245.76953125)"/>
<path d="M0 0 C0 0.66 0 1.32 0 2 C-0.99 2.495 -0.99 2.495 -2 3 C-3.04808041 4.97522846 -4.0520411 6.97481509 -5 9 C-7.97 8.67 -10.94 8.34 -14 8 C-14 8.66 -14 9.32 -14 10 C-15.33333333 11.33333333 -16.66666667 12.66666667 -18 14 C-19.23512079 16.13309192 -19.23512079 16.13309192 -20 18 C-20.33 17.01 -20.66 16.02 -21 15 C-21.99 15 -22.98 15 -24 15 C-18.459067 9.48770231 -8.43747974 0 0 0 Z M-23 17 C-21 18 -21 18 -21 18 Z " fill="#F29356" transform="translate(121,189)"/>
<path d="M0 0 C0.66 0 1.32 0 2 0 C1.98839844 1.05960938 1.97679687 2.11921875 1.96484375 3.2109375 C1.95546524 4.59895658 1.94636511 5.98697755 1.9375 7.375 C1.92912109 8.07367188 1.92074219 8.77234375 1.91210938 9.4921875 C1.8164558 13.37295376 1.8164558 13.37295376 3 17 C3.433125 15.1128125 3.433125 15.1128125 3.875 13.1875 C4.57303539 10.1460601 5.20446585 8.69330122 7 6 C8.32 6.33 9.64 6.66 11 7 C10.01 7.7734375 10.01 7.7734375 9 8.5625 C6.70054226 10.93531947 6.70054226 10.93531947 6.5 14.5 C7.07397983 18.51785878 7.88749282 19.52830313 11 22 C11.66 22.66 12.32 23.32 13 24 C9.62537285 23.45276317 7.91765 22.9451 5 21 C5 21.66 5 22.32 5 23 C4.34 23 3.68 23 3 23 C-0.13293435 17.85244907 -0.37993835 13.94749378 -0.1875 8.125 C-0.17396484 7.34125 -0.16042969 6.5575 -0.14648438 5.75 C-0.11141789 3.83303218 -0.05762072 1.91642249 0 0 Z " fill="#BC7B55" transform="translate(193,238)"/>
<path d="M0 0 C0 0.33 0 0.66 0 1 C-0.56396484 1.00410889 -1.12792969 1.00821777 -1.70898438 1.01245117 C-4.30699703 1.04569765 -6.90275923 1.1163677 -9.5 1.1875 C-10.8303125 1.19620117 -10.8303125 1.19620117 -12.1875 1.20507812 C-18.63834189 1.4185251 -23.02558484 2.80921516 -28 7 C-29.82777435 9.01035004 -29.82777435 9.01035004 -30.875 11.125 C-31.42800781 12.11886719 -31.42800781 12.11886719 -31.9921875 13.1328125 C-32.32476562 13.74898437 -32.65734375 14.36515625 -33 15 C-33.66 15.99 -34.32 16.98 -35 18 C-35.17942163 14.05272412 -35.09350689 11.4019487 -33 8 C-32.34 8 -31.68 8 -31 8 C-31 7.34 -31 6.68 -31 6 C-30.34 6 -29.68 6 -29 6 C-29 5.34 -29 4.68 -29 4 C-27.02 3.34 -25.04 2.68 -23 2 C-23 1.34 -23 0.68 -23 0 C-15.79306861 -2.40231046 -7.41006122 -0.97181131 0 0 Z " fill="#DD9466" transform="translate(154,217)"/>
<path d="M0 0 C2.875 0.9375 2.875 0.9375 4.875 3.9375 C5.01745897 6.70405324 5.06269445 9.36403306 5 12.125 C4.99097656 12.87458984 4.98195312 13.62417969 4.97265625 14.39648438 C4.94912578 16.24362654 4.91325561 18.09060412 4.875 19.9375 C4.545 19.9375 4.215 19.9375 3.875 19.9375 C3.545 14.3275 3.215 8.7175 2.875 2.9375 C-1.86147686 2.67397686 -1.86147686 2.67397686 -5.125 3.9375 C-5.22206112 10.05235027 -4.89540851 15.87053301 -4.125 21.9375 C-5.115 21.2775 -6.105 20.6175 -7.125 19.9375 C-7.45712151 17.21470201 -7.58898719 14.78345682 -7.5625 12.0625 C-7.58248047 11.34191406 -7.60246094 10.62132812 -7.62304688 9.87890625 C-7.61979749 6.35007423 -7.39456459 4.30707362 -5.29296875 1.42578125 C-3.125 -0.0625 -3.125 -0.0625 0 0 Z " fill="#B47F5D" transform="translate(180.125,236.0625)"/>
<path d="M0 0 C1.98 0 3.96 0 6 0 C6.33 4.95 6.66 9.9 7 15 C8.32 14.34 9.64 13.68 11 13 C16.31703377 12.57801319 19.6901672 12.49826085 24 16 C24 16.66 24 17.32 24 18 C23.01 18 22.02 18 21 18 C20.67 17.34 20.34 16.68 20 16 C16.7 16 13.4 16 10 16 C9.67 17.32 9.34 18.64 9 20 C7.015625 19.01171875 7.015625 19.01171875 5 17 C4.70438924 14.12961948 4.62056984 11.66245255 4.75 8.8125 C4.76804688 8.06291016 4.78609375 7.31332031 4.8046875 6.54101562 C4.85175891 4.6934629 4.92350234 2.84656841 5 1 C2.69 1.33 0.38 1.66 -2 2 C-1.34 1.34 -0.68 0.68 0 0 Z " fill="#FBEAD7" transform="translate(167,218)"/>
<path d="M0 0 C0.7528125 -0.00515625 1.505625 -0.0103125 2.28125 -0.015625 C4.7296721 0.27749596 6.37304054 1.03183231 8.5 2.25 C4.81030849 3.47989717 2.30233187 2.81330842 -1.5 2.25 C-1.83 2.58 -2.16 2.91 -2.5 3.25 C-0.025 4.24 -0.025 4.24 2.5 5.25 C2.17 5.91 1.84 6.57 1.5 7.25 C-3.12 7.25 -7.74 7.25 -12.5 7.25 C-8.29322028 1.99152535 -6.57692045 -0.0450474 0 0 Z " fill="#FDF1E2" transform="translate(214.5,230.75)"/>
<path d="M0 0 C0.33 0 0.66 0 1 0 C1.33 5.28 1.66 10.56 2 16 C2.99 16.33 3.98 16.66 5 17 C4.625 18.9375 4.625 18.9375 4 21 C1.04335481 22.4783226 -1.74229737 22.06032783 -5 22 C-5.33 21.34 -5.66 20.68 -6 20 C-5.19175781 19.51015625 -4.38351563 19.0203125 -3.55078125 18.515625 C-0.15900467 15.17059572 -0.22342879 12.26904333 -0.1875 7.75 C-0.16236328 7.00492188 -0.13722656 6.25984375 -0.11132812 5.4921875 C-0.05266898 3.66202207 -0.0234192 1.83095547 0 0 Z " fill="#FAECE0" transform="translate(226,239)"/>
<path d="M0 0 C0.80308594 0.01417969 1.60617188 0.02835938 2.43359375 0.04296875 C3.64208984 0.05263672 3.64208984 0.05263672 4.875 0.0625 C6.87109375 0.23046875 6.87109375 0.23046875 7.87109375 1.23046875 C7.91190158 3.23005239 7.91363731 5.23092129 7.87109375 7.23046875 C5.87109375 3.48046875 5.87109375 3.48046875 5.87109375 1.23046875 C2.88889247 1.77885937 2.88889247 1.77885937 -0.12890625 3.23046875 C-1.58051563 6.24826747 -1.58051563 6.24826747 -2.12890625 9.23046875 C2.32609375 8.73546875 2.32609375 8.73546875 6.87109375 8.23046875 C3.87109375 11.23046875 3.87109375 11.23046875 0.80859375 11.54296875 C-2.12890625 11.23046875 -2.12890625 11.23046875 -4.12890625 9.23046875 C-4.37890625 5.73046875 -4.37890625 5.73046875 -4.12890625 2.23046875 C-2.12890625 0.23046875 -2.12890625 0.23046875 0 0 Z " fill="#B57B59" transform="translate(211.12890625,245.76953125)"/>
<path d="M0 0 C0.763125 0.495 1.52625 0.99 2.3125 1.5 C1.9825 2.82 1.6525 4.14 1.3125 5.5 C0.879375 4.860625 0.44625 4.22125 0 3.5625 C-2.03458613 1.07578362 -3.58777429 0.62777765 -6.73828125 0.26171875 C-12.4395999 0.07462885 -15.27532005 0.85995154 -19.6875 4.5 C-20.0175 4.83 -20.3475 5.16 -20.6875 5.5 C-19.3675 5.5 -18.0475 5.5 -16.6875 5.5 C-17.0175 6.49 -17.3475 7.48 -17.6875 8.5 C-19.3375 8.17 -20.9875 7.84 -22.6875 7.5 C-22.6875 5.52 -22.6875 3.54 -22.6875 1.5 C-15.15722786 -1.90993456 -7.84833556 -3.19254328 0 0 Z " fill="#D38A5E" transform="translate(223.6875,231.5)"/>
<path d="M0 0 C0.66 0 1.32 0 2 0 C2.33 2.97 2.66 5.94 3 9 C3.94875 8.79375 4.8975 8.5875 5.875 8.375 C6.90625 8.25125 7.9375 8.1275 9 8 C11 10 11 10 11 12 C7.7 12.66 4.4 13.32 1 14 C0.67 9.38 0.34 4.76 0 0 Z " fill="#D67C45" transform="translate(173,217)"/>
<path d="M0 0 C0.33 0 0.66 0 1 0 C1.19818283 6.70518586 1.30844801 12.65176798 -1 19 C-2.32 18.67 -3.64 18.34 -5 18 C-5 13.05 -5 8.1 -5 3 C-4.67 3 -4.34 3 -4 3 C-3.93941406 3.78246094 -3.87882813 4.56492188 -3.81640625 5.37109375 C-3.73261719 6.38300781 -3.64882812 7.39492187 -3.5625 8.4375 C-3.48128906 9.44683594 -3.40007812 10.45617187 -3.31640625 11.49609375 C-3.26788532 13.93640779 -3.26788532 13.93640779 -2 15 C-1.93941406 14.16855469 -1.87882813 13.33710938 -1.81640625 12.48046875 C-1.73261719 11.39378906 -1.64882812 10.30710938 -1.5625 9.1875 C-1.48128906 8.10855469 -1.40007812 7.02960938 -1.31640625 5.91796875 C-1 3 -1 3 0 0 Z " fill="#AB7352" transform="translate(232,237)"/>
<path d="M0 0 C0.99 0 1.98 0 3 0 C1.62456232 4.17807684 -0.2434161 6.62354167 -3.375 9.6875 C-4.14585937 10.45449219 -4.91671875 11.22148437 -5.7109375 12.01171875 C-7.76508493 13.79595261 -9.51458803 14.93887662 -12 16 C-11.67 14.68 -11.34 13.36 -11 12 C-10.01 12 -9.02 12 -8 12 C-7.9175 11.236875 -7.835 10.47375 -7.75 9.6875 C-7 7 -7 7 -5.125 5.1875 C-3 4 -3 4 0 4 C0 2.68 0 1.36 0 0 Z " fill="#EB9059" transform="translate(220,271)"/>
<path d="M0 0 C0.99 0.66 1.98 1.32 3 2 C-1.99327746 7.1246795 -5.94072393 7.84653748 -13 8 C-13 7.34 -13 6.68 -13 6 C-14.98 6 -16.96 6 -19 6 C-19 5.67 -19 5.34 -19 5 C-18.20335937 4.96261719 -17.40671875 4.92523438 -16.5859375 4.88671875 C-7.56695496 4.52113098 -7.56695496 4.52113098 0 0 Z " fill="#D88E62" transform="translate(154,256)"/>
<path d="M0 0 C2.97 0.99 5.94 1.98 9 3 C7 5 7 5 4.75341797 5.22705078 C3.84221191 5.21657715 2.93100586 5.20610352 1.9921875 5.1953125 C0.51298828 5.18564453 0.51298828 5.18564453 -0.99609375 5.17578125 C-2.54490234 5.15064453 -2.54490234 5.15064453 -4.125 5.125 C-5.16527344 5.11597656 -6.20554688 5.10695313 -7.27734375 5.09765625 C-9.85179092 5.07403747 -12.42578212 5.04110149 -15 5 C-15.33 4.34 -15.66 3.68 -16 3 C-8.08 2.505 -8.08 2.505 0 2 C0 1.34 0 0.68 0 0 Z " fill="#CF7742" transform="translate(198,259)"/>
<path d="M0 0 C2 1 2 1 3 3 C0.83312509 5.27521866 -1.45620509 7.15794162 -4 9 C-4.66 8.34 -5.32 7.68 -6 7 C-8.10820797 7.3185177 -8.10820797 7.3185177 -10 8 C-10.33 6.68 -10.66 5.36 -11 4 C-9.741875 3.896875 -8.48375 3.79375 -7.1875 3.6875 C-4.39500343 3.35141192 -3.25566879 3.19974124 -1 1.4375 C-0.67 0.963125 -0.34 0.48875 0 0 Z " fill="#D98652" transform="translate(165,214)"/>
<path d="M0 0 C-0.21722777 3.80148599 -0.96892539 4.96820273 -3.6875 7.75 C-6.65179693 10.03961434 -9.23440747 10.7310291 -13 11 C-13 10.34 -13 9.68 -13 9 C-9.535 8.505 -9.535 8.505 -6 8 C-6.33 6.68 -6.66 5.36 -7 4 C-2.25 0 -2.25 0 0 0 Z " fill="#FDF0E1" transform="translate(157,250)"/>
<path d="M0 0 C7.85131668 0.34740339 14.64925625 2.28451906 22 5 C22 5.33 22 5.66 22 6 C15.25 7.125 15.25 7.125 13 6 C13 5.34 13 4.68 13 4 C8.71 3.34 4.42 2.68 0 2 C0 1.34 0 0.68 0 0 Z " fill="#E9945E" transform="translate(169,183)"/>
<path d="M0 0 C0.66 0 1.32 0 2 0 C2.92470553 4.71599818 3.22923777 7.67265609 1 12 C-1.62113708 12 -3.50935112 11.68707555 -6 11 C-5.566875 10.45730469 -5.13375 9.91460937 -4.6875 9.35546875 C-4.130625 8.64003906 -3.57375 7.92460937 -3 7.1875 C-2.443125 6.47980469 -1.88625 5.77210938 -1.3125 5.04296875 C0.27025683 2.98404001 0.27025683 2.98404001 0 0 Z " fill="#F19155" transform="translate(108,289)"/>
<path d="M0 0 C0.33 0 0.66 0 1 0 C0.67 5.61 0.34 11.22 0 17 C-0.66 17.33 -1.32 17.66 -2 18 C-2.66 13.38 -3.32 8.76 -4 4 C-3.34 4 -2.68 4 -2 4 C-1.34 2.68 -0.68 1.36 0 0 Z " fill="#D97B3F" transform="translate(118,230)"/>
<path d="M0 0 C0.8353125 0.495 0.8353125 0.495 1.6875 1 C1.6875 1.66 1.6875 2.32 1.6875 3 C-4.7475 3.495 -4.7475 3.495 -11.3125 4 C-10.9825 2.68 -10.6525 1.36 -10.3125 0 C-6.49244156 -1.27335281 -3.74765604 -1.62060802 0 0 Z " fill="#E58349" transform="translate(218.3125,227)"/>
<path d="M0 0 C-1.98 3.63 -3.96 7.26 -6 11 C-6.33 11 -6.66 11 -7 11 C-6.79375 9.9275 -6.5875 8.855 -6.375 7.75 C-6.0123809 4.12380904 -6.01637931 2.91708924 -8 0 C-2.25 -1.125 -2.25 -1.125 0 0 Z " fill="#CD8357" transform="translate(230,261)"/>
<path d="M0 0 C0.33 0 0.66 0 1 0 C1 4.95 1 9.9 1 15 C0.01 14.34 -0.98 13.68 -2 13 C-2.36328125 10.46875 -2.36328125 10.46875 -2.3125 7.5 C-2.30863281 6.5203125 -2.30476562 5.540625 -2.30078125 4.53125 C-2 2 -2 2 0 0 Z " fill="#BA6A3A" transform="translate(230,238)"/>
<path d="M0 0 C0.91007813 0.00902344 1.82015625 0.01804688 2.7578125 0.02734375 C3.45648438 0.03894531 4.15515625 0.05054688 4.875 0.0625 C4.545 1.0525 4.215 2.0425 3.875 3.0625 C0.245 3.3925 -3.385 3.7225 -7.125 4.0625 C-7.125 3.0725 -7.125 2.0825 -7.125 1.0625 C-4.60024538 -0.19987731 -2.81299534 -0.03606404 0 0 Z " fill="#FEF6EC" transform="translate(139.125,217.9375)"/>
<path d="M0 0 C0 0.33 0 0.66 0 1 C-2.31 1.33 -4.62 1.66 -7 2 C-4.69 2.33 -2.38 2.66 0 3 C0 3.33 0 3.66 0 4 C-2.31 4.33 -4.62 4.66 -7 5 C-7.66 6.98 -8.32 8.96 -9 11 C-9.33 11 -9.66 11 -10 11 C-10 8.36 -10 5.72 -10 3 C-10.66 2.67 -11.32 2.34 -12 2 C-8.09971775 -0.60018816 -4.52565431 -0.15085514 0 0 Z " fill="#F0DBC9" transform="translate(216,242)"/>
<path d="M0 0 C3.53631699 0.55756186 4.88269342 1.64153476 7.0625 4.4375 C9.01068086 6.91277489 10.30632886 8.20421924 13 10 C10.03 9.67 7.06 9.34 4 9 C4 7.35 4 5.7 4 4 C3.01 3.67 2.02 3.34 1 3 C0.67 2.01 0.34 1.02 0 0 Z " fill="#CE8255" transform="translate(144,223)"/>
<path d="M0 0 C0 0.66 0 1.32 0 2 C1.32 2.66 2.64 3.32 4 4 C-4.19256018 5.45295405 -4.19256018 5.45295405 -7.5625 3.5625 C-8.036875 3.046875 -8.51125 2.53125 -9 2 C-5.86501708 0.14223235 -3.62528568 -0.20140476 0 0 Z " fill="#F7E9DB" transform="translate(211,257)"/>
<path d="M0 0 C1.32 0.33 2.64 0.66 4 1 C3.01773438 1.58201172 3.01773438 1.58201172 2.015625 2.17578125 C-0.23981033 3.83325291 -0.23981033 3.83325291 -0.390625 6.48046875 C-0.34421875 7.37378906 -0.2978125 8.26710937 -0.25 9.1875 C-0.21390625 10.08855469 -0.1778125 10.98960937 -0.140625 11.91796875 C-0.09421875 12.60503906 -0.0478125 13.29210937 0 14 C-2.63730092 11.70457142 -2.97181989 11.25831771 -3.375 7.5625 C-2.99225664 3.92643811 -2.48192093 2.5853343 0 0 Z " fill="#FCEFE0" transform="translate(202,245)"/>
<path d="M0 0 C0.66 0 1.32 0 2 0 C2.33 2.31 2.66 4.62 3 7 C4.32 7.33 5.64 7.66 7 8 C3.30458414 8.95024979 0.69541586 8.95024979 -3 8 C-2.505 6.865625 -2.01 5.73125 -1.5 4.5625 C0.06467617 1.49062936 0.06467617 1.49062936 0 0 Z " fill="#D97D42" transform="translate(198,232)"/>
<path d="M0 0 C0.66 0 1.32 0 2 0 C2 0.66 2 1.32 2 2 C2.78375 2.144375 3.5675 2.28875 4.375 2.4375 C7 3 7 3 9 4 C8.67 5.65 8.34 7.3 8 9 C7.34 9 6.68 9 6 9 C5.938125 8.38125 5.87625 7.7625 5.8125 7.125 C5.171081 4.72238859 5.171081 4.72238859 2.4375 3.75 C1.633125 3.5025 0.82875 3.255 0 3 C0 2.01 0 1.02 0 0 Z " fill="#D68555" transform="translate(186,229)"/>
<path d="M0 0 C3 0.1875 3 0.1875 5 1.1875 C5 2.8375 5 4.4875 5 6.1875 C3.68 5.8575 2.36 5.5275 1 5.1875 C1 4.5275 1 3.8675 1 3.1875 C-1.97 2.6925 -1.97 2.6925 -5 2.1875 C-3 0.1875 -3 0.1875 0 0 Z " fill="#E98246" transform="translate(187,225.8125)"/>
<path d="M0 0 C2.97 0.495 2.97 0.495 6 1 C6 3.64 6 6.28 6 9 C5.34 9 4.68 9 4 9 C0 3.70588235 0 3.70588235 0 0 Z " fill="#F29355" transform="translate(86,265)"/>
<path d="M0 0 C0.66 0.33 1.32 0.66 2 1 C1.67 3.31 1.34 5.62 1 8 C-2.63 7.34 -6.26 6.68 -10 6 C-9.67 5.34 -9.34 4.68 -9 4 C-6.03 4 -3.06 4 0 4 C0 2.68 0 1.36 0 0 Z " fill="#FCF4EB" transform="translate(218,239)"/>
<path d="M0 0 C0.66 0.33 1.32 0.66 2 1 C1.60167969 1.42410156 1.20335937 1.84820312 0.79296875 2.28515625 C-2.85862461 6.32767445 -5.12157254 9.88650302 -7 15 C-7.33 15 -7.66 15 -8 15 C-8.17942163 11.05272412 -8.09350689 8.4019487 -6 5 C-5.34 5 -4.68 5 -4 5 C-4 4.34 -4 3.68 -4 3 C-3.34 3 -2.68 3 -2 3 C-2 2.34 -2 1.68 -2 1 C-1.34 0.67 -0.68 0.34 0 0 Z " fill="#D28859" transform="translate(127,220)"/>
<path d="M0 0 C1.32 0 2.64 0 4 0 C3.125 4.75 3.125 4.75 2 7 C0.68 6.67 -0.64 6.34 -2 6 C-1.125 1.125 -1.125 1.125 0 0 Z " fill="#ED8744" transform="translate(152,210)"/>
<path d="M0 0 C1.65 0 3.3 0 5 0 C3.9200311 3.13190982 2.99049526 4.00599212 0.125 5.8125 C-2.97683969 6.99119908 -4.0201445 7.26070809 -7 6 C-6.21625 5.7525 -5.4325 5.505 -4.625 5.25 C-1.67682892 3.84610901 -1.0975223 2.99324263 0 0 Z " fill="#DE7D44" transform="translate(207,263)"/>
<path d="M0 0 C0.99 0.33 1.98 0.66 3 1 C3 1.66 3 2.32 3 3 C1.02 3.66 -0.96 4.32 -3 5 C-3 5.66 -3 6.32 -3 7 C-3.66 7 -4.32 7 -5 7 C-5 7.66 -5 8.32 -5 9 C-5.99 9.33 -6.98 9.66 -8 10 C-8 9.34 -8 8.68 -8 8 C-7.34 8 -6.68 8 -6 8 C-5.9175 7.21625 -5.835 6.4325 -5.75 5.625 C-5 3 -5 3 -3 1.75 C-2.34 1.5025 -1.68 1.255 -1 1 C-0.67 0.67 -0.34 0.34 0 0 Z " fill="#E68447" transform="translate(128,216)"/>
<path d="M0 0 C0.99 0.66 1.98 1.32 3 2 C-2.66507011 5.08900201 -7.50857435 7.57664615 -14 8 C-11.23776722 5.23776722 -8.79293383 5.42143709 -5 5 C-5 4.34 -5 3.68 -5 3 C-3.68 3 -2.36 3 -1 3 C-0.67 2.01 -0.34 1.02 0 0 Z " fill="#E89059" transform="translate(134,306)"/>
<path d="M0 0 C1.32 0 2.64 0 4 0 C4 0.99 4 1.98 4 3 C8.29 3 12.58 3 17 3 C17 3.33 17 3.66 17 4 C11.72 4 6.44 4 1 4 C0.67 2.68 0.34 1.36 0 0 Z " fill="#C88256" transform="translate(158,258)"/>
<path d="M0 0 C1.65 0 3.3 0 5 0 C4.34 1.65 3.68 3.3 3 5 C7.62 5 12.24 5 17 5 C17 5.33 17 5.66 17 6 C12.05 6 7.1 6 2 6 C1.34 4.02 0.68 2.04 0 0 Z " fill="#BC7D57" transform="translate(179,256)"/>
<path d="M0 0 C0.33 0 0.66 0 1 0 C1.13277344 0.90363281 1.26554687 1.80726563 1.40234375 2.73828125 C1.57894531 3.91777344 1.75554687 5.09726563 1.9375 6.3125 C2.11152344 7.48425781 2.28554687 8.65601563 2.46484375 9.86328125 C2.92093031 13.01641403 2.92093031 13.01641403 4 16 C3.01 16 2.02 16 1 16 C-0.57300962 10.26696495 -1.24327778 5.84340558 0 0 Z " fill="#C58057" transform="translate(118,236)"/>
<path d="M0 0 C0.91007813 0.00902344 1.82015625 0.01804688 2.7578125 0.02734375 C3.45648438 0.03894531 4.15515625 0.05054688 4.875 0.0625 C4.875 0.3925 4.875 0.7225 4.875 1.0625 C2.235 1.0625 -0.405 1.0625 -3.125 1.0625 C-3.125 2.3825 -3.125 3.7025 -3.125 5.0625 C-5.765 4.7325 -8.405 4.4025 -11.125 4.0625 C-7.11558587 0.98861583 -5.08389208 -0.0651781 0 0 Z " fill="#F9E6D3" transform="translate(149.125,217.9375)"/>
<path d="M0 0 C0.33 0.66 0.66 1.32 1 2 C3.01669827 3.13350534 3.01669827 3.13350534 5 4 C1.93109813 5.53445094 -0.70094266 4.54984289 -4 4 C-4.33 3.01 -4.66 2.02 -5 1 C-3 0 -3 0 0 0 Z " fill="#DF7E43" transform="translate(158,259)"/>
<path d="M0 0 C-1.0625 1.5 -1.0625 1.5 -3 3 C-6.6875 3.1875 -6.6875 3.1875 -10 3 C-9.67 2.01 -9.34 1.02 -9 0 C-5.8033 -1.37001429 -3.30096158 -0.8252404 0 0 Z " fill="#FCF2E8" transform="translate(220,257)"/>
<path d="M0 0 C0.66 0.33 1.32 0.66 2 1 C0.7625 2.0828125 0.7625 2.0828125 -0.5 3.1875 C-3.24407806 5.72917366 -3.24407806 5.72917366 -3.3125 8.8125 C-3.1578125 9.8953125 -3.1578125 9.8953125 -3 11 C-3.99 10.34 -4.98 9.68 -6 9 C-5.69381595 5.32579134 -5.24228216 4.21864487 -2.4375 1.6875 C-1.633125 1.130625 -0.82875 0.57375 0 0 Z " fill="#E68E5C" transform="translate(100,301)"/>
<path d="M0 0 C0.66 0.33 1.32 0.66 2 1 C2 2.32 2 3.64 2 5 C1.32453125 4.98839844 0.6490625 4.97679687 -0.046875 4.96484375 C-0.93890625 4.95582031 -1.8309375 4.94679687 -2.75 4.9375 C-3.63171875 4.92589844 -4.5134375 4.91429687 -5.421875 4.90234375 C-7.7818838 4.99173802 -9.74498524 5.33087179 -12 6 C-12 5.34 -12 4.68 -12 4 C-9.47524538 2.73762269 -7.68799534 2.90143596 -4.875 2.9375 C-3.96492187 2.94652344 -3.05484375 2.95554688 -2.1171875 2.96484375 C-1.41851562 2.97644531 -0.71984375 2.98804688 0 3 C0 2.01 0 1.02 0 0 Z " fill="#B47650" transform="translate(216,238)"/>
<path d="M0 0 C-0.6875 2.375 -0.6875 2.375 -2 5 C-4.625 6.3125 -4.625 6.3125 -7 7 C-4.60526316 0 -4.60526316 0 0 0 Z " fill="#CD885E" transform="translate(136,223)"/>
<path d="M0 0 C0.99 0.33 1.98 0.66 3 1 C2.67 1.66 2.34 2.32 2 3 C2 3.99 2 4.98 2 6 C-1 6 -1 6 -2.6875 4.5 C-3.120625 4.005 -3.55375 3.51 -4 3 C-2.1875 1.4375 -2.1875 1.4375 0 0 Z " fill="#F2945C" transform="translate(106,282)"/>
<path d="M0 0 C0.66 0.33 1.32 0.66 2 1 C1.67 1.66 1.34 2.32 1 3 C3.31 3 5.62 3 8 3 C8 3.33 8 3.66 8 4 C2.06 4.495 2.06 4.495 -4 5 C-2.68 3.35 -1.36 1.7 0 0 Z " fill="#F9E1CC" transform="translate(206,233)"/>
<path d="M0 0 C1.32 0 2.64 0 4 0 C4 0.66 4 1.32 4 2 C5.32 2 6.64 2 8 2 C8 2.66 8 3.32 8 4 C4.85375007 4.26218749 3.38162983 4.24754367 0.6875 2.5 C0.130625 2.005 -0.42625 1.51 -1 1 C-0.67 0.67 -0.34 0.34 0 0 Z " fill="#DA7C42" transform="translate(221,229)"/>
<path d="M0 0 C2.64 0 5.28 0 8 0 C8 0.66 8 1.32 8 2 C6.68 1.67 5.36 1.34 4 1 C4 1.99 4 2.98 4 4 C2.68 4 1.36 4 0 4 C0 2.68 0 1.36 0 0 Z " fill="#FDFCF8" transform="translate(146,219)"/>
<path d="M0 0 C2.5625 2.1875 2.5625 2.1875 5 5 C4.8125 7.8125 4.8125 7.8125 4 10 C3.34 10 2.68 10 2 10 C0.68373308 6.38026598 0 3.90432869 0 0 Z " fill="#EA945D" transform="translate(81,251)"/>
<path d="M0 0 C0.66 0 1.32 0 2 0 C2.66 2.31 3.32 4.62 4 7 C3.34 7 2.68 7 2 7 C1.67 7.66 1.34 8.32 1 9 C0.29925156 5.846632 0 3.27275026 0 0 Z " fill="#D4793F" transform="translate(120,252)"/>
<path d="M0 0 C3.63 0 7.26 0 11 0 C8.04592092 1.96938605 6.44788617 2.56901423 3 3 C2.01 2.67 1.02 2.34 0 2 C0 1.34 0 0.68 0 0 Z " fill="#D37D4A" transform="translate(163,262)"/>
<path d="M0 0 C2.95183101 2.95183101 3.08663988 5.95511947 4 10 C3.34 10 2.68 10 2 10 C1.67 9.01 1.34 8.02 1 7 C0.34 6.34 -0.32 5.68 -1 5 C-0.625 2.375 -0.625 2.375 0 0 Z " fill="#D78850" transform="translate(227,220)"/>
<path d="M0 0 C3 3 3 3 3.1875 5.6875 C3.0946875 6.8321875 3.0946875 6.8321875 3 8 C2.01 8.495 2.01 8.495 1 9 C0.67 6.03 0.34 3.06 0 0 Z " fill="#BB6C3F" transform="translate(194,247)"/>
<path d="M0 0 C2.31 0.33 4.62 0.66 7 1 C6.67 1.66 6.34 2.32 6 3 C2.9375 3.625 2.9375 3.625 0 4 C0 2.68 0 1.36 0 0 Z " fill="#C87339" transform="translate(174,227)"/>
<path d="M0 0 C1.2065625 0.0309375 1.2065625 0.0309375 2.4375 0.0625 C2.1075 1.3825 1.7775 2.7025 1.4375 4.0625 C0.1175 4.3925 -1.2025 4.7225 -2.5625 5.0625 C-3.125 3.125 -3.125 3.125 -3.5625 1.0625 C-2.5625 0.0625 -2.5625 0.0625 0 0 Z " fill="#F48644" transform="translate(124.5625,215.9375)"/>
</svg>
